<?xml version="1.0" encoding="UTF-8"?>
<svg width="1200pt" height="1200pt" version="1.1" viewBox="0 0 1200 1200" xmlns="http://www.w3.org/2000/svg">
 <g>
  <path d="m782.74 745.96c-25.582-0.007813-46.27-20.668-46.156-46.016-0.12109-25.676 20.57-46.348 46.156-46.434 25.426 0.089844 46.105 20.766 46.148 46.434-0.042969 25.348-20.719 46.008-46.148 46.016z"/>
  <path d="m406.86 745.96c-25.582-0.007813-46.27-20.668-46.156-46.016-0.12109-25.676 20.57-46.348 46.156-46.434 25.426 0.089844 46.105 20.766 46.148 46.434-0.046875 25.348-20.723 46.008-46.148 46.016z"/>
  <path d="m444.8 274.83h9.5938c3.6914 0 6.668-2.9219 6.668-6.4883v-56.184c0-3.6406-2.9766-6.5586-6.668-6.5586h-9.5938c-3.7422 0-6.8125 2.918-6.8125 6.5586v56.184c0 3.5703 3.0742 6.4883 6.8125 6.4883zm281.98 167.22h-263.9c-23.348 0-38.535 10.051-46.516 30.785l-37.641 97.672h432.14l-37.625-97.672c-7.8633-20.777-23.027-30.785-46.465-30.785zm-126.78-437.21c-328.5 0-595.17 266.66-595.17 595.17s266.66 595.17 595.17 595.17 595.17-266.66 595.17-595.17c-1.9336-328.5-266.66-595.17-595.17-595.17zm-202.05 173.18c0-13.961 11.41-25.391 25.367-25.391l124.41 5.9453c13.941 0 25.352 11.289 25.352 25.328v17.094h42.66v12.094h160.43l21.895 27.277-21.895 26.996h-160.43v12.031h-42.664v17.152c0 14-11.41 25.43-25.352 25.43l-124.41 5.8047c-13.957 0-25.367-11.328-25.367-25.371 0 0-6.4102-34.125-6.4102-63.75 0-19.422 6.4102-60.641 6.4102-60.641zm546.33 651.43h-92.309v57.242c0.046875 27.402-11.312 44.531-20.824 54.086-12.844 12.848-30.105 19.922-48.605 19.922h-0.023437c-18.391 0-35.516-6.9844-48.227-19.742-9.5117-9.5117-20.824-26.684-20.777-54.312v-57.195h-237.42v57.242c0.046875 27.402-11.312 44.531-20.824 54.086-12.848 12.848-30.109 19.922-48.609 19.922h-0.023438c-18.391 0-35.516-6.9844-48.227-19.742-9.5117-9.5117-20.824-26.684-20.777-54.312v-57.195h-92.309v-143.55c0-51.871 34.613-95.32 81.781-109.81l46.199-119.83c14.785-38.355 47.395-60.352 89.535-60.352h264.01c42.324 0 74.977 22.039 89.512 60.488l46.113 119.69c47.18 14.48 81.805 57.934 81.805 109.82z"/>
 </g>
</svg>
